<?xml version="1.0" standalone="no"?>
<!DOCTYPE svg PUBLIC "-//W3C//DTD SVG 20010904//EN"
 "http://www.w3.org/TR/2001/REC-SVG-20010904/DTD/svg10.dtd">
<svg version="1.0" xmlns="http://www.w3.org/2000/svg"
 width="3279.000000pt" height="1381.000000pt" viewBox="0 0 3279.000000 1381.000000"
 preserveAspectRatio="xMidYMid meet">

<g transform="translate(0.000000,1381.000000) scale(0.100000,-0.100000)"
fill="#000000" stroke="none">
<path d="M25050 9345 l0 -705 890 0 890 0 0 705 0 705 -890 0 -890 0 0 -705z"/>
<path d="M8385 8379 c-1040 -59 -1700 -446 -1986 -1165 -30 -77 -82 -245 -76
-250 2 -2 1504 -142 1585 -147 l34 -2 18 72 c59 230 209 358 476 409 124 23
350 15 449 -16 166 -52 234 -127 270 -298 8 -37 15 -113 15 -169 l0 -102 -52
-5 c-29 -3 -149 -12 -267 -21 -723 -54 -1311 -174 -1710 -349 -509 -224 -848
-618 -925 -1075 -21 -124 -21 -349 0 -471 45 -260 170 -495 374 -701 284 -288
647 -413 1200 -413 435 0 740 82 1040 282 105 70 275 233 360 346 l65 86 11
-184 c12 -189 15 -210 41 -358 l15 -88 849 0 849 0 -15 37 c-28 66 -75 257
-97 390 -20 123 -21 176 -28 1418 -7 1252 -10 1387 -41 1605 -17 119 -46 234
-79 306 -74 164 -238 357 -410 484 -102 75 -307 177 -452 224 -396 129 -958
187 -1513 155z m782 -2741 c-9 -428 -69 -623 -228 -742 -126 -95 -245 -135
-424 -143 -321 -14 -484 121 -485 402 0 376 322 606 995 709 50 8 103 14 119
15 l29 1 -6 -242z"/>
<path d="M18145 8379 c-1040 -59 -1700 -446 -1986 -1165 -30 -77 -82 -245 -76
-250 2 -2 1504 -142 1585 -147 l34 -2 18 72 c59 230 209 358 476 409 124 23
350 15 449 -16 166 -52 234 -127 270 -298 8 -37 15 -113 15 -169 l0 -102 -52
-5 c-29 -3 -149 -12 -267 -21 -723 -54 -1311 -174 -1710 -349 -509 -224 -848
-618 -925 -1075 -21 -124 -21 -349 0 -471 45 -260 170 -495 374 -701 284 -288
647 -413 1200 -413 435 0 740 82 1040 282 105 70 275 233 360 346 l65 86 11
-184 c12 -189 15 -210 41 -358 l15 -88 849 0 849 0 -15 37 c-28 66 -75 257
-97 390 -20 123 -21 176 -28 1418 -7 1252 -10 1387 -41 1605 -17 119 -46 234
-79 306 -74 164 -238 357 -410 484 -102 75 -307 177 -452 224 -396 129 -958
187 -1513 155z m782 -2741 c-9 -428 -69 -623 -228 -742 -126 -95 -245 -135
-424 -143 -321 -14 -484 121 -485 402 0 376 322 606 995 709 50 8 103 14 119
15 l29 1 -6 -242z"/>
<path d="M24056 8380 c-479 -55 -802 -346 -972 -875 l-39 -120 -3 458 -2 457
-740 0 -740 0 0 -2270 0 -2270 850 0 849 0 4 1133 c3 1256 1 1215 71 1419 41
121 83 193 165 280 160 171 395 249 704 235 73 -4 161 -13 197 -22 36 -8 68
-14 73 -15 4 0 7 355 7 789 l0 789 -29 5 c-56 12 -316 16 -395 7z"/>
<path d="M29715 8379 c-1040 -59 -1700 -446 -1986 -1165 -30 -77 -82 -245 -76
-250 2 -2 1504 -142 1585 -147 l34 -2 18 72 c59 230 209 358 476 409 124 23
350 15 449 -16 166 -52 234 -127 270 -298 8 -37 15 -113 15 -169 l0 -102 -52
-5 c-29 -3 -149 -12 -267 -21 -723 -54 -1311 -174 -1710 -349 -509 -224 -848
-618 -925 -1075 -21 -124 -21 -349 0 -471 45 -260 170 -495 374 -701 284 -288
647 -413 1200 -413 435 0 740 82 1040 282 105 70 275 233 360 346 l65 86 11
-184 c12 -189 15 -210 41 -358 l15 -88 849 0 849 0 -15 37 c-28 66 -75 257
-97 390 -20 123 -21 176 -28 1418 -7 1252 -10 1387 -41 1605 -17 119 -46 234
-79 306 -74 164 -238 357 -410 484 -102 75 -307 177 -452 224 -396 129 -958
187 -1513 155z m782 -2741 c-9 -428 -69 -623 -228 -742 -126 -95 -245 -135
-424 -143 -321 -14 -484 121 -485 402 0 376 322 606 995 709 50 8 103 14 119
15 l29 1 -6 -242z"/>
<path d="M5759 8259 c-352 -528 -956 -866 -1689 -944 -113 -12 -458 -15 -2097
-15 l-1963 0 0 -1770 0 -1770 2037 3 c1897 2 2045 4 2143 20 303 52 528 121
755 231 411 201 681 464 869 844 93 186 136 342 157 558 36 388 -84 775 -341
1099 l-48 61 60 79 c124 166 218 351 273 540 102 353 75 759 -72 1086 l-28 62
-56 -84z m-1649 -2444 c242 -36 417 -118 456 -212 18 -41 18 -105 1 -146 -30
-70 -136 -138 -278 -176 -191 -52 -155 -51 -1570 -51 l-1319 0 0 300 0 300
1308 0 c1088 0 1323 -3 1402 -15z"/>
<path d="M11237 8228 c15 -40 397 -1061 849 -2268 l822 -2195 665 -3 665 -2
15 42 c8 24 382 1043 831 2266 449 1222 816 2225 816 2227 0 3 -287 5 -638 5
l-639 0 -46 -147 c-150 -473 -746 -2246 -750 -2233 -3 8 -26 85 -51 170 -25
85 -189 580 -364 1100 -176 520 -331 982 -346 1028 l-28 82 -914 0 -914 0 27
-72z"/>
<path d="M25050 6030 l0 -2270 890 0 890 0 0 2270 0 2270 -890 0 -890 0 0
-2270z"/>
<path d="M1676 3289 c-475 -50 -837 -303 -1012 -707 -108 -249 -131 -594 -60
-888 85 -349 306 -608 634 -743 242 -100 583 -125 914 -66 84 14 230 56 256
73 10 7 6 32 -18 123 -17 62 -32 115 -34 117 -2 1 -43 -11 -92 -27 -147 -49
-269 -64 -462 -58 -197 6 -289 25 -427 91 -277 132 -440 386 -477 745 -19 192
15 424 87 586 66 148 199 296 340 379 85 49 232 100 339 116 100 16 317 13
421 -5 50 -9 128 -29 175 -45 46 -16 86 -27 89 -24 7 7 70 216 71 232 1 45
-368 114 -590 111 -41 -1 -111 -5 -154 -10z"/>
<path d="M4231 3289 c-169 -20 -331 -79 -475 -172 -108 -71 -183 -142 -261
-245 -213 -285 -298 -689 -229 -1096 80 -473 394 -814 834 -909 125 -26 355
-28 483 -3 391 76 690 337 820 716 57 166 71 266 72 505 0 174 -4 238 -18 305
-52 247 -146 436 -296 593 -226 237 -564 348 -930 306z m364 -273 c339 -116
555 -480 555 -938 0 -330 -98 -599 -286 -785 -68 -68 -100 -90 -176 -127 -113
-54 -208 -76 -325 -76 -348 0 -626 235 -737 621 -33 116 -46 217 -46 357 0
440 198 805 504 929 103 42 170 53 306 49 104 -3 139 -8 205 -30z"/>
<path d="M10146 3289 c-158 -22 -301 -78 -412 -162 -223 -170 -295 -478 -169
-733 79 -160 259 -291 550 -399 206 -76 312 -134 393 -216 146 -147 146 -386
1 -532 -99 -99 -223 -141 -414 -141 -173 0 -348 41 -499 116 -32 16 -62 26
-66 21 -5 -4 -22 -55 -40 -112 -17 -57 -34 -110 -37 -117 -11 -30 196 -108
377 -141 138 -25 384 -23 510 4 306 66 508 235 576 483 24 89 24 273 0 354
-55 184 -181 318 -403 429 -39 20 -136 62 -215 93 -211 83 -292 128 -369 204
-87 85 -113 149 -107 261 5 92 33 155 98 220 87 87 204 125 385 123 136 -1
248 -24 371 -75 41 -17 76 -30 78 -28 1 2 21 58 44 124 36 104 40 121 27 131
-27 20 -170 63 -261 79 -112 19 -328 27 -418 14z"/>
<path d="M21026 3289 c-475 -50 -837 -303 -1012 -707 -108 -249 -131 -594 -60
-888 85 -349 306 -608 634 -743 242 -100 583 -125 914 -66 84 14 230 56 256
73 10 7 6 32 -18 123 -17 62 -32 115 -34 117 -2 1 -43 -11 -92 -27 -147 -49
-269 -64 -462 -58 -197 6 -289 25 -427 91 -277 132 -440 386 -477 745 -19 192
15 424 87 586 66 148 199 296 340 379 85 49 232 100 339 116 100 16 317 13
421 -5 50 -9 128 -29 175 -45 46 -16 86 -27 89 -24 7 7 70 216 71 232 1 45
-368 114 -590 111 -41 -1 -111 -5 -154 -10z"/>
<path d="M27721 3289 c-169 -20 -331 -79 -475 -172 -108 -71 -183 -142 -261
-245 -213 -285 -298 -689 -229 -1096 80 -473 394 -814 834 -909 125 -26 355
-28 483 -3 391 76 690 337 820 716 57 166 71 266 72 505 0 174 -4 238 -18 305
-52 247 -146 436 -296 593 -226 237 -564 348 -930 306z m364 -273 c339 -116
555 -480 555 -938 0 -330 -98 -599 -286 -785 -68 -68 -100 -90 -176 -127 -113
-54 -208 -76 -325 -76 -348 0 -626 235 -737 621 -33 116 -46 217 -46 357 0
440 198 805 504 929 103 42 170 53 306 49 104 -3 139 -8 205 -30z"/>
<path d="M14800 3269 c-115 -7 -244 -22 -312 -35 l-28 -6 0 -1174 0 -1174 155
0 155 0 0 515 0 515 188 0 c266 0 357 -26 453 -127 89 -93 104 -133 197 -503
38 -151 80 -302 93 -335 l24 -60 164 -3 c153 -2 163 -1 156 15 -33 83 -83 255
-130 443 -68 274 -87 335 -133 425 -46 89 -141 187 -216 221 -31 14 -56 29
-56 32 0 4 26 17 58 29 199 78 351 259 388 463 52 288 -70 544 -317 664 -192
93 -435 121 -839 95z m499 -250 c252 -58 378 -235 349 -488 -10 -86 -47 -160
-113 -230 -63 -67 -119 -100 -225 -133 -69 -21 -92 -23 -305 -23 l-230 0 -3
433 -2 432 27 11 c40 15 226 28 328 22 50 -2 128 -13 174 -24z"/>
<path d="M6540 2070 l0 -1190 150 0 150 0 0 613 c0 585 -13 1223 -26 1335 -3
28 -2 52 2 52 5 0 45 -69 89 -152 122 -232 276 -482 733 -1193 l418 -650 162
-3 162 -2 0 1190 0 1190 -150 0 -150 0 0 -597 c0 -595 11 -1051 30 -1265 5
-61 8 -113 6 -115 -2 -2 -44 74 -93 169 -133 256 -228 411 -704 1143 l-433
665 -173 0 -173 0 0 -1190z"/>
<path d="M11730 3130 l0 -130 370 0 370 0 0 -1060 0 -1060 160 0 160 0 0 1060
0 1060 375 0 375 0 0 130 0 130 -905 0 -905 0 0 -130z"/>
<path d="M17053 2453 c4 -888 3 -873 68 -1069 94 -282 292 -459 579 -518 238
-48 490 -23 685 69 209 98 340 250 419 485 59 178 59 185 63 1048 l4 792 -160
0 -161 0 0 -764 c0 -482 -4 -793 -11 -843 -14 -105 -66 -255 -113 -325 -102
-155 -268 -238 -475 -238 -153 0 -276 45 -371 136 -75 71 -112 130 -150 233
-58 158 -60 191 -60 1034 l0 767 -161 0 -160 0 4 -807z"/>
<path d="M22640 3130 l0 -130 370 0 370 0 0 -1060 0 -1060 160 0 160 0 0 1060
0 1060 375 0 375 0 0 130 0 130 -905 0 -905 0 0 -130z"/>
<path d="M25370 2070 l0 -1190 155 0 155 0 0 1190 0 1190 -155 0 -155 0 0
-1190z"/>
<path d="M30030 2070 l0 -1190 150 0 150 0 0 613 c0 585 -13 1223 -26 1335 -3
28 -2 52 2 52 5 0 45 -69 89 -152 122 -232 276 -482 733 -1193 l418 -650 162
-3 162 -2 0 1190 0 1190 -150 0 -150 0 0 -597 c0 -595 11 -1051 30 -1265 5
-61 8 -113 6 -115 -2 -2 -44 74 -93 169 -133 256 -228 411 -704 1143 l-433
665 -173 0 -173 0 0 -1190z"/>
</g>
</svg>
